<svg width="50" height="50" viewBox="0 0 50 50" fill="none" xmlns="http://www.w3.org/2000/svg">
<g clip-path="url(#clip0)">
<path d="M49.9875 50.0001V49.998H50V31.6605C50 22.6897 48.0688 15.7793 37.5813 15.7793C32.5396 15.7793 29.1562 18.546 27.775 21.1689H27.6292V16.6168H17.6854V49.998H28.0396V33.4689C28.0396 29.1168 28.8646 24.9085 34.2542 24.9085C39.5646 24.9085 39.6438 29.8751 39.6438 33.748V50.0001H49.9875Z" fill="#CEB692"/>
<path d="M0.824994 16.6187H11.1917V49.9999H0.824994V16.6187Z" fill="#CEB692"/>
<path d="M6.00417 0C2.68958 0 0 2.68958 0 6.00417C0 9.31875 2.68958 12.0646 6.00417 12.0646C9.31875 12.0646 12.0083 9.31875 12.0083 6.00417C12.0062 2.68958 9.31667 0 6.00417 0V0Z" fill="#CEB692"/>
</g>
<defs>
<clipPath id="clip0">
<rect width="50" height="50" fill="white"/>
</clipPath>
</defs>
</svg>
