<svg width="60" height="60" viewBox="0 0 60 60" fill="none" xmlns="http://www.w3.org/2000/svg">
<g clip-path="url(#clip0)">
<path d="M29.9963 0.296143C13.3977 0.328075 -0.0322396 13.8096 -0.000424241 30.4081C0.0264603 44.4462 9.76795 56.5957 23.4644 59.6736C24.1397 59.8229 24.8082 59.3966 24.9576 58.7213C24.9772 58.6327 24.9872 58.5422 24.9872 58.4513V51.639C24.9872 50.9474 24.4265 50.3867 23.7349 50.3867H21.2304C18.1047 50.3867 15.9709 47.4238 14.1 44.8091L13.5239 44.0127C14.3665 44.4833 15.1719 45.0175 15.9333 45.6106C17.3424 46.9228 19.1554 47.7176 21.0751 47.8647C22.963 48.1274 24.7064 46.8101 24.9691 44.9222C25.0059 44.6581 25.0119 44.3908 24.9871 44.1254V43.2513C24.9872 42.6918 24.6161 42.2 24.0779 42.0467C17.1303 40.0806 12.4644 34.8763 12.4644 29.0983C12.5162 25.9721 13.7985 22.9925 16.0333 20.8058C16.3941 20.434 16.4886 19.8784 16.2713 19.4082C15.3602 17.3448 15.4972 14.9691 16.6395 13.0242C18.3974 13.7322 19.9684 14.8361 21.2303 16.25C21.5699 16.653 22.1257 16.8002 22.6203 16.6181C27.3898 14.8985 32.6101 14.8985 37.3795 16.6181C37.872 16.7967 38.4235 16.6497 38.762 16.25C40.0228 14.8354 41.5929 13.7307 43.3503 13.0216C44.4926 14.9665 44.6296 17.3422 43.7185 19.4057C43.501 19.8759 43.5957 20.4314 43.9564 20.8032C46.1928 22.99 47.4762 25.9708 47.5279 29.0982C47.5279 35.1641 42.3459 40.5965 34.9225 42.3071C34.2485 42.4621 33.8276 43.134 33.9826 43.808C34.007 43.9142 34.0451 44.0165 34.096 44.1128C34.7976 45.6895 35.1094 47.4119 35.0052 49.1344V58.4512C35.0052 59.1428 35.5659 59.7035 36.2575 59.7035C36.3485 59.7032 36.4391 59.6931 36.528 59.6735C52.7227 56.0342 62.9009 39.9556 59.2616 23.761C56.1839 10.0645 44.0344 0.323145 29.9963 0.296143Z" fill="#CEB692"/>
</g>
<defs>
<clipPath id="clip0">
<rect width="60" height="60" fill="white"/>
</clipPath>
</defs>
</svg>
