<svg width="120" height="120" viewBox="0 0 120 120" fill="none" xmlns="http://www.w3.org/2000/svg">
<circle cx="60" cy="60" r="60" fill="#D7CEB8"/>
<g clip-path="url(#clip0)">
<path d="M79.6562 79.5H77.1562V84.5H54.6562V87H77.1562V90.75C77.1562 92.8209 75.4772 94.5 73.4062 94.5H45.9062C44.5665 94.4982 43.3287 93.7841 42.6561 92.625L40.4912 93.875C41.6118 95.8055 43.6742 96.9957 45.9062 97H73.4062C76.8566 96.9957 79.652 94.2003 79.6562 90.75V79.5Z" fill="#70613E"/>
<path d="M58.4062 89.5H60.9062V92H58.4062V89.5Z" fill="#70613E"/>
<path d="M65.9062 55.75V53.25H62.0928C61.4696 45.2733 55.1329 38.9366 47.1562 38.3135V34.5H44.6562V38.3135C43.814 38.3782 42.9784 38.5088 42.1562 38.7035V32H62.1562V29.5H42.1562V28.25C42.1562 26.1791 43.8353 24.5 45.9062 24.5H73.4062C74.3193 24.5 75.2013 24.8333 75.8861 25.4375L77.5402 23.5625C76.3988 22.5548 74.9285 21.9994 73.4062 22H45.9062C42.4559 22.0043 39.6605 24.7997 39.6562 28.25V39.5C34.0276 41.8578 30.1915 47.166 29.7197 53.25H25.9062V55.75H29.7228C30.3124 63.7419 36.6643 70.0981 44.6562 70.6926V74.5H47.1562V70.6926C55.1482 70.0981 61.5001 63.7419 62.0897 55.75H65.9062ZM44.6562 65.75V68.1926C42.9125 68.0358 41.2157 67.5457 39.6562 66.7498V64.5C39.6562 61.0485 42.4547 58.25 45.9062 58.25C49.3578 58.25 52.1562 61.0485 52.1562 64.5V66.7498C50.5974 67.5469 48.9 68.0376 47.1562 68.1963V65.75H44.6562ZM42.1562 52C42.1562 49.9291 43.8353 48.25 45.9062 48.25C47.9772 48.25 49.6562 49.9291 49.6562 52C49.6562 54.0709 47.9772 55.75 45.9062 55.75C43.8353 55.75 42.1562 54.0709 42.1562 52ZM55.0725 64.7502C54.9376 64.8748 54.7936 64.9749 54.6562 65.0902V64.5C54.6532 61.2346 52.8319 58.2427 49.9327 56.74C51.9408 55.0487 52.6775 52.2826 51.7772 49.8168C50.877 47.3503 48.5314 45.7097 45.9062 45.7097C43.2811 45.7097 40.9355 47.3503 40.0353 49.8168C39.135 52.2826 39.8717 55.0487 41.8798 56.74C38.9806 58.2427 37.1593 61.2346 37.1562 64.5V65.0963C37.0177 64.9828 36.8737 64.876 36.74 64.7563C34.1497 62.4333 32.5353 59.2156 32.2228 55.75H34.6562V53.25H32.2197C32.8307 46.6509 38.0571 41.4244 44.6562 40.8135V43.25H47.1562V40.8135C53.7554 41.4244 58.9818 46.6509 59.5928 53.25H57.1562V55.75H59.5897C59.2772 59.2156 57.6628 62.4333 55.0725 64.7563V64.7502Z" fill="#70613E"/>
<path d="M93.4063 44.5C94.0966 44.5 94.6563 43.9403 94.6563 43.25V28.25C94.6563 27.5597 94.0966 27 93.4063 27H65.9063C65.2159 27 64.6562 27.5597 64.6562 28.25V43.25C64.6562 43.9403 65.2159 44.5 65.9063 44.5H93.4063ZM67.1563 29.5H92.1563V42H67.1563V29.5Z" fill="#70613E"/>
<path d="M69.6562 32H74.6563V34.5H69.6562V32Z" fill="#70613E"/>
<path d="M77.1562 32H89.6562V34.5H77.1562V32Z" fill="#70613E"/>
<path d="M69.6562 37H89.6562V39.5H69.6562V37Z" fill="#70613E"/>
<path d="M93.1853 47C92.2173 47.0018 91.2835 47.3571 90.5602 47.9998L79.6563 57.6128V47H77.1563V59.5H77.5176L70.4064 65.775C65.7799 66.0399 62.1617 69.8656 62.1563 74.5V76.7052C62.1611 77.9454 61.4598 79.0813 60.3478 79.6312C59.8284 79.89 59.5555 80.4723 59.6886 81.0369C59.8217 81.6014 60.3258 82.0006 60.9063 82H69.6563C74.2907 81.9945 78.1163 78.3763 78.3812 73.7499L96.1638 53.5973C97.1959 52.4266 97.4468 50.7598 96.8041 49.337C96.162 47.9143 94.746 47 93.1853 47V47ZM69.6563 79.5H63.9397C64.4115 78.6443 64.6581 77.6824 64.6563 76.7052V74.5C64.6605 71.2438 67.1605 68.5344 70.4064 68.2701L75.8861 73.7499C75.6224 76.9957 72.9125 79.4963 69.6563 79.5ZM94.2888 51.9438L77.1001 71.425L72.7312 67.0574L92.2124 49.8674C92.7953 49.356 93.6748 49.3846 94.2235 49.9327C94.7716 50.4814 94.8003 51.361 94.2888 51.9438Z" fill="#70613E"/>
<path d="M23.4063 90.75H50.9063C51.5966 90.75 52.1563 90.1903 52.1563 89.5V79.5C52.1563 78.8097 51.5966 78.25 50.9063 78.25H42.1563V72H39.6563V78.25H23.4063C22.7159 78.25 22.1562 78.8097 22.1562 79.5V89.5C22.1562 90.1903 22.7159 90.75 23.4063 90.75ZM24.6563 80.75H49.6563V88.25H24.6563V80.75Z" fill="#70613E"/>
<path d="M27.1562 83.25H33.4062V85.75H27.1562V83.25Z" fill="#70613E"/>
<path d="M35.9062 83.25H47.1563V85.75H35.9062V83.25Z" fill="#70613E"/>
<path d="M23.4062 39.5H35.9062C36.5966 39.5 37.1562 38.9403 37.1562 38.25V28.25C37.1562 27.5597 36.5966 27 35.9062 27H23.4062C22.7159 27 22.1562 27.5597 22.1562 28.25V38.25C22.1562 38.9403 22.7159 39.5 23.4062 39.5ZM24.6562 29.5H34.6562V37H24.6562V29.5Z" fill="#70613E"/>
<path d="M27.1562 32H32.1562V34.5H27.1562V32Z" fill="#70613E"/>
</g>
<defs>
<clipPath id="clip0">
<rect width="75" height="75" fill="white" transform="translate(22 22)"/>
</clipPath>
</defs>
</svg>
