<svg width="88" height="72" viewBox="0 0 88 72" fill="none" xmlns="http://www.w3.org/2000/svg">
<path d="M49 4L3 68" stroke="black" stroke-width="6"/>
<path d="M22 40L49 40" stroke="black" stroke-width="6"/>
<line x1="49" y1="72" x2="49" stroke="#FF5C00" stroke-width="6"/>
<path d="M50.0463 71.9469C55.1017 72.2217 60.1581 71.4271 64.8856 69.6149C69.613 67.8027 73.905 65.0138 77.4814 61.4303C81.0578 57.8467 83.8381 53.5491 85.6407 48.818C87.4434 44.087 88.2279 39.0289 87.9429 33.9741C87.658 28.9192 86.3101 23.9813 83.9872 19.4828C81.6644 14.9843 78.4187 11.0264 74.4623 7.86737C70.5059 4.70839 65.9276 2.41945 61.0265 1.15001C56.1254 -0.119434 51.0116 -0.340825 46.0191 0.50029L46.9902 6.26427C51.1721 5.55973 55.4556 5.74517 59.5609 6.8085C63.6662 7.87183 67.5011 9.78912 70.8152 12.4352C74.1292 15.0812 76.8478 18.3966 78.7936 22.1647C80.7393 25.9328 81.8683 30.0689 82.107 34.303C82.3456 38.5371 81.6885 42.7739 80.1786 46.7368C78.6686 50.6997 76.3397 54.2995 73.3441 57.3012C70.3484 60.3029 66.7532 62.639 62.7934 64.157C58.8335 65.6749 54.598 66.3405 50.3635 66.1103L50.0463 71.9469Z" fill="#FF5C00"/>
</svg>
