<svg width="30" height="30" viewBox="0 0 30 30" fill="none" xmlns="http://www.w3.org/2000/svg">
<path d="M25.5005 20.6147C26.416 20.2804 27.2749 19.8421 28.067 19.3234C27.193 21.7567 25.6575 23.8733 23.6667 25.4317C21.3054 27.2718 18.3658 28.3748 15.1912 28.3748C11.3858 28.3748 8.00327 26.8568 5.51062 24.3642C3.01944 21.873 1.5 18.4526 1.5 14.6836C1.5 11.5742 2.53383 8.70963 4.29567 6.39211C5.82423 4.43336 7.84958 2.88737 10.1685 1.96481C9.69628 2.7293 9.31273 3.55007 9.01585 4.41372L9.01579 4.4137L9.01136 4.42699C8.58118 5.71752 8.32059 7.14347 8.32059 8.62242C8.32059 12.1418 9.75477 15.358 12.059 17.6623C14.3633 19.9666 17.5796 21.4008 21.0989 21.4008C22.6416 21.4008 24.1265 21.1444 25.5005 20.6147Z" stroke="white" stroke-width="3"/>
</svg>
