<svg width="30" height="30" viewBox="0 0 30 30" fill="none" xmlns="http://www.w3.org/2000/svg">
<g clip-path="url(#clip0)">
<path d="M20.3176 9.68255C18.9684 8.33334 17.0636 7.46033 15.0001 7.46033C12.9366 7.46033 11.0319 8.29366 9.68267 9.68255C8.33347 11.0318 7.46045 12.9365 7.46045 15C7.46045 17.0635 8.33347 18.9683 9.68267 20.3175C11.0319 21.6667 12.9366 22.5397 15.0001 22.5397C17.0636 22.5397 18.9684 21.7064 20.3176 20.3175C21.6668 18.9683 22.5398 17.0635 22.5398 15C22.5398 12.9365 21.7065 11.0318 20.3176 9.68255ZM18.889 18.8889C17.897 19.881 16.5081 20.4762 15.0001 20.4762C13.4922 20.4762 12.1033 19.881 11.1112 18.8889C10.1192 17.8968 9.52394 16.5079 9.52394 15C9.52394 13.4921 10.1192 12.1032 11.1112 11.1111C12.1033 10.1191 13.4922 9.52382 15.0001 9.52382C16.5081 9.52382 17.897 10.1191 18.889 11.1111C19.8811 12.1032 20.4763 13.4921 20.4763 15C20.4763 16.5079 19.8811 17.8968 18.889 18.8889Z" fill="#FF5C00"/>
<path d="M28.9682 13.9683H25.9126C25.3571 13.9683 24.8809 14.4445 24.8809 15C24.8809 15.5556 25.3571 16.0318 25.9126 16.0318H28.9682C29.5237 16.0318 29.9999 15.5556 29.9999 15C29.9999 14.4445 29.5237 13.9683 28.9682 13.9683Z" fill="#FF5C00"/>
<path d="M15 24.881C14.4445 24.881 13.9683 25.3572 13.9683 25.9127V28.9683C13.9683 29.5239 14.4445 30 15 30C15.5556 30 16.0318 29.5239 16.0318 28.9683V25.9127C16.0318 25.3572 15.5556 24.881 15 24.881Z" fill="#FF5C00"/>
<path d="M25.5953 24.1667L23.4127 21.9841C23.0556 21.5873 22.381 21.5873 21.9841 21.9841C21.5873 22.381 21.5873 23.0159 21.9841 23.4127L24.1667 25.5953C24.5635 25.9921 25.1984 25.9921 25.5953 25.5953C25.9921 25.1984 25.9921 24.5635 25.5953 24.1667Z" fill="#FF5C00"/>
<path d="M15 0C14.4445 0 13.9683 0.47619 13.9683 1.03175V4.0873C13.9683 4.64285 14.4445 5.11904 15 5.11904C15.5556 5.11904 16.0318 4.64285 16.0318 4.0873V1.03175C16.0318 0.47619 15.5556 0 15 0Z" fill="#FF5C00"/>
<path d="M25.6348 4.40474C25.238 4.00791 24.6031 4.00791 24.2062 4.40474L22.0237 6.58727C21.6269 6.9841 21.6269 7.61902 22.0237 8.01584C22.3808 8.41267 23.0554 8.41267 23.4523 8.01584L25.6348 5.8333C26.0316 5.43648 26.0316 4.80156 25.6348 4.40474Z" fill="#FF5C00"/>
<path d="M4.0873 13.9683H1.03175C0.47619 13.9683 0 14.4445 0 15C0 15.5556 0.436508 16.0318 1.03175 16.0318H4.0873C4.64285 16.0318 5.11904 15.5556 5.11904 15C5.11904 14.4445 4.64285 13.9683 4.0873 13.9683Z" fill="#FF5C00"/>
<path d="M7.97611 21.9841C7.61897 21.5873 6.94437 21.5873 6.54754 21.9841L4.365 24.1667C3.96818 24.5635 3.96818 25.1984 4.365 25.5953C4.76183 25.9921 5.39675 25.9921 5.79357 25.5953L7.97611 23.4127C8.37294 23.0159 8.37294 22.381 7.97611 21.9841Z" fill="#FF5C00"/>
<path d="M7.97611 6.58727L5.79357 4.40474C5.39675 4.00791 4.76183 4.00791 4.365 4.40474C3.96818 4.80156 3.96818 5.43648 4.365 5.8333L6.54754 8.01584C6.94437 8.41267 7.57929 8.41267 7.97611 8.01584C8.37294 7.61902 8.37294 6.9841 7.97611 6.58727Z" fill="#FF5C00"/>
</g>
<defs>
<clipPath id="clip0">
<rect width="30" height="30" fill="white"/>
</clipPath>
</defs>
</svg>
