<svg width="225" height="72" viewBox="0 0 225 72" fill="none" xmlns="http://www.w3.org/2000/svg">
<rect width="225" height="72" fill="#CFDAFF"/>
<path d="M82.726 29.4V42H80.926V36.384H73.69V42H71.89V29.4H73.69V34.818H80.926V29.4H82.726ZM90.3314 42.108C89.3834 42.108 88.5314 41.898 87.7754 41.478C87.0194 41.058 86.4254 40.482 85.9934 39.75C85.5734 39.006 85.3634 38.166 85.3634 37.23C85.3634 36.294 85.5734 35.46 85.9934 34.728C86.4254 33.984 87.0194 33.408 87.7754 33C88.5314 32.58 89.3834 32.37 90.3314 32.37C91.2794 32.37 92.1254 32.58 92.8694 33C93.6254 33.408 94.2134 33.984 94.6334 34.728C95.0654 35.46 95.2814 36.294 95.2814 37.23C95.2814 38.166 95.0654 39.006 94.6334 39.75C94.2134 40.482 93.6254 41.058 92.8694 41.478C92.1254 41.898 91.2794 42.108 90.3314 42.108ZM90.3314 40.596C90.9434 40.596 91.4894 40.458 91.9694 40.182C92.4614 39.894 92.8454 39.498 93.1214 38.994C93.3974 38.478 93.5354 37.89 93.5354 37.23C93.5354 36.57 93.3974 35.988 93.1214 35.484C92.8454 34.968 92.4614 34.572 91.9694 34.296C91.4894 34.02 90.9434 33.882 90.3314 33.882C89.7194 33.882 89.1674 34.02 88.6754 34.296C88.1954 34.572 87.8114 34.968 87.5234 35.484C87.2474 35.988 87.1094 36.57 87.1094 37.23C87.1094 37.89 87.2474 38.478 87.5234 38.994C87.8114 39.498 88.1954 39.894 88.6754 40.182C89.1674 40.458 89.7194 40.596 90.3314 40.596ZM109.605 32.37C110.805 32.37 111.753 32.718 112.449 33.414C113.157 34.11 113.511 35.142 113.511 36.51V42H111.783V36.708C111.783 35.784 111.567 35.088 111.135 34.62C110.715 34.152 110.109 33.918 109.317 33.918C108.441 33.918 107.745 34.194 107.229 34.746C106.713 35.286 106.455 36.066 106.455 37.086V42H104.727V36.708C104.727 35.784 104.511 35.088 104.079 34.62C103.659 34.152 103.053 33.918 102.261 33.918C101.385 33.918 100.689 34.194 100.173 34.746C99.6572 35.286 99.3992 36.066 99.3992 37.086V42H97.6712V32.46H99.3272V33.882C99.6752 33.39 100.131 33.018 100.695 32.766C101.259 32.502 101.901 32.37 102.621 32.37C103.365 32.37 104.025 32.52 104.601 32.82C105.177 33.12 105.621 33.558 105.933 34.134C106.293 33.582 106.791 33.15 107.427 32.838C108.075 32.526 108.801 32.37 109.605 32.37ZM125.365 37.284C125.365 37.416 125.353 37.59 125.329 37.806H117.589C117.697 38.646 118.063 39.324 118.687 39.84C119.323 40.344 120.109 40.596 121.045 40.596C122.185 40.596 123.103 40.212 123.799 39.444L124.753 40.56C124.321 41.064 123.781 41.448 123.133 41.712C122.497 41.976 121.783 42.108 120.991 42.108C119.983 42.108 119.089 41.904 118.309 41.496C117.529 41.076 116.923 40.494 116.491 39.75C116.071 39.006 115.861 38.166 115.861 37.23C115.861 36.306 116.065 35.472 116.473 34.728C116.893 33.984 117.463 33.408 118.183 33C118.915 32.58 119.737 32.37 120.649 32.37C121.561 32.37 122.371 32.58 123.079 33C123.799 33.408 124.357 33.984 124.753 34.728C125.161 35.472 125.365 36.324 125.365 37.284ZM120.649 33.828C119.821 33.828 119.125 34.08 118.561 34.584C118.009 35.088 117.685 35.748 117.589 36.564H123.709C123.613 35.76 123.283 35.106 122.719 34.602C122.167 34.086 121.477 33.828 120.649 33.828ZM128.179 42.108C127.843 42.108 127.555 41.994 127.315 41.766C127.075 41.526 126.955 41.226 126.955 40.866C126.955 40.518 127.075 40.23 127.315 40.002C127.555 39.762 127.843 39.642 128.179 39.642C128.515 39.642 128.797 39.756 129.025 39.984C129.253 40.212 129.367 40.506 129.367 40.866C129.367 41.226 129.247 41.526 129.007 41.766C128.779 41.994 128.503 42.108 128.179 42.108ZM130.795 45.6C130.375 45.6 129.985 45.552 129.625 45.456C129.265 45.36 128.965 45.216 128.725 45.024L129.283 43.692C129.643 43.992 130.111 44.142 130.687 44.142C131.143 44.142 131.491 43.998 131.731 43.71C131.983 43.434 132.109 43.02 132.109 42.468V32.46H133.837V42.432C133.837 43.416 133.573 44.19 133.045 44.754C132.517 45.318 131.767 45.6 130.795 45.6ZM132.973 30.624C132.637 30.624 132.355 30.516 132.127 30.3C131.911 30.084 131.803 29.82 131.803 29.508C131.803 29.196 131.911 28.932 132.127 28.716C132.355 28.488 132.637 28.374 132.973 28.374C133.309 28.374 133.585 28.482 133.801 28.698C134.029 28.902 134.143 29.16 134.143 29.472C134.143 29.796 134.029 30.072 133.801 30.3C133.585 30.516 133.309 30.624 132.973 30.624ZM139.87 42.108C139.09 42.108 138.34 42.006 137.62 41.802C136.9 41.586 136.336 41.316 135.928 40.992L136.648 39.624C137.068 39.924 137.578 40.164 138.178 40.344C138.778 40.524 139.384 40.614 139.996 40.614C141.508 40.614 142.264 40.182 142.264 39.318C142.264 39.03 142.162 38.802 141.958 38.634C141.754 38.466 141.496 38.346 141.184 38.274C140.884 38.19 140.452 38.1 139.888 38.004C139.12 37.884 138.49 37.746 137.998 37.59C137.518 37.434 137.104 37.17 136.756 36.798C136.408 36.426 136.234 35.904 136.234 35.232C136.234 34.368 136.594 33.678 137.314 33.162C138.034 32.634 139 32.37 140.212 32.37C140.848 32.37 141.484 32.448 142.12 32.604C142.756 32.76 143.278 32.97 143.686 33.234L142.948 34.602C142.168 34.098 141.25 33.846 140.194 33.846C139.462 33.846 138.904 33.966 138.52 34.206C138.136 34.446 137.944 34.764 137.944 35.16C137.944 35.472 138.052 35.718 138.268 35.898C138.484 36.078 138.748 36.21 139.06 36.294C139.384 36.378 139.834 36.474 140.41 36.582C141.178 36.714 141.796 36.858 142.264 37.014C142.744 37.158 143.152 37.41 143.488 37.77C143.824 38.13 143.992 38.634 143.992 39.282C143.992 40.146 143.62 40.836 142.876 41.352C142.144 41.856 141.142 42.108 139.87 42.108ZM152.06 42L149.306 38.346L146.516 42H144.59L148.352 37.122L144.77 32.46H146.696L149.324 35.898L151.934 32.46H153.824L150.224 37.122L154.022 42H152.06Z" fill="black"/>
<g clip-path="url(#clip0)">
<path d="M47.642 35.741C50.117 33.215 51.618 30.777 51.875 28.857C52.026 27.735 51.773 26.799 51.122 26.076C50.326 25.19 49.031 24.742 47.275 24.742C45.905 24.742 44.299 25.014 42.5 25.552C41.098 22.02 39.007 20 36.741 20C34.475 20 32.385 22.02 30.983 25.552C29.183 25.014 27.577 24.742 26.208 24.742C24.451 24.742 23.157 25.191 22.36 26.076C21.709 26.8 21.456 27.735 21.607 28.856C21.864 30.775 23.366 33.214 25.841 35.741C23.365 38.267 21.864 40.706 21.607 42.625C21.454 43.747 21.708 44.682 22.36 45.406C23.157 46.292 24.451 46.741 26.208 46.741C27.576 46.741 29.182 46.469 30.983 45.929C32.385 49.462 34.476 51.482 36.741 51.482C39.007 51.482 41.098 49.461 42.5 45.929C44.302 46.467 45.907 46.741 47.275 46.741C49.031 46.741 50.326 46.292 51.122 45.407C51.773 44.683 52.027 43.747 51.875 42.625C51.618 40.706 50.117 38.268 47.642 35.741ZM43.955 34.819C44.316 35.125 44.666 35.434 45 35.741C44.666 36.049 44.316 36.357 43.955 36.663C43.965 36.357 43.97 36.051 43.97 35.741C43.97 35.431 43.964 35.124 43.955 34.819ZM49.757 28.902C49.551 30.427 48.268 32.46 46.135 34.642C45.421 33.983 44.645 33.327 43.825 32.687C43.649 30.777 43.309 28.993 42.814 27.377C46.049 26.412 48.535 26.457 49.406 27.424C49.724 27.776 49.842 28.273 49.757 28.902ZM43.826 38.795C44.645 38.154 45.421 37.499 46.136 36.84C48.269 39.022 49.552 41.055 49.758 42.58C49.843 43.209 49.725 43.706 49.406 44.059C48.537 45.026 46.051 45.071 42.815 44.106C43.31 42.49 43.65 40.706 43.826 38.795ZM42.042 40.117C41.862 41.34 41.607 42.504 41.283 43.587C40.358 43.249 39.403 42.846 38.434 42.387C39.423 41.829 40.308 41.289 41.128 40.745C41.44 40.537 41.743 40.328 42.042 40.117ZM36.741 49.391C35.255 49.391 33.792 47.817 32.707 45.063C34.036 44.583 35.392 43.992 36.742 43.305C38.088 43.991 39.443 44.58 40.776 45.063C39.69 47.816 38.227 49.391 36.741 49.391ZM32.354 40.744C33.169 41.286 34.054 41.826 35.047 42.386C34.078 42.845 33.123 43.248 32.198 43.586C31.873 42.503 31.618 41.338 31.439 40.115C31.738 40.328 32.043 40.537 32.354 40.744ZM31.439 31.367C31.619 30.143 31.874 28.979 32.198 27.896C33.126 28.235 34.082 28.638 35.048 29.096C34.061 29.653 33.176 30.192 32.354 30.739C32.043 30.946 31.738 31.155 31.439 31.367ZM36.741 22.092C38.228 22.092 39.691 23.666 40.776 26.42C39.443 26.902 38.088 27.493 36.741 28.178C35.393 27.492 34.037 26.901 32.706 26.419C33.792 23.666 35.254 22.092 36.741 22.092ZM41.129 30.739C40.31 30.195 39.425 29.655 38.436 29.096C39.406 28.636 40.362 28.233 41.285 27.896C41.61 28.978 41.865 30.142 42.045 31.365C41.743 31.154 41.44 30.945 41.129 30.739ZM42.36 35.741C42.36 36.463 42.331 37.206 42.272 38.01C41.585 38.53 40.893 39.02 40.214 39.471C39.109 40.207 37.941 40.903 36.741 41.543C35.543 40.904 34.376 40.208 33.268 39.471C32.586 39.018 31.894 38.526 31.209 38.008C31.15 37.205 31.121 36.462 31.121 35.74C31.121 35.019 31.15 34.275 31.209 33.472C31.897 32.952 32.589 32.461 33.268 32.01C34.373 31.275 35.541 30.578 36.741 29.937C37.937 30.575 39.104 31.272 40.214 32.009C40.893 32.46 41.585 32.952 42.272 33.47C42.331 34.276 42.36 35.02 42.36 35.741ZM29.527 36.663C29.17 36.359 28.82 36.051 28.483 35.741C28.818 35.431 29.168 35.124 29.527 34.819C29.519 35.124 29.514 35.432 29.514 35.741C29.514 36.05 29.519 36.357 29.527 36.663ZM29.655 32.688C28.836 33.328 28.061 33.984 27.348 34.642C25.214 32.459 23.931 30.427 23.724 28.901C23.64 28.273 23.758 27.776 24.075 27.424C24.52 26.929 25.386 26.667 26.578 26.667C27.713 26.667 29.088 26.906 30.666 27.377C30.172 28.992 29.832 30.777 29.655 32.688ZM23.724 42.581C23.93 41.057 25.214 39.023 27.348 36.84C28.06 37.497 28.836 38.152 29.655 38.795C29.832 40.706 30.172 42.49 30.667 44.106C27.432 45.071 24.946 45.024 24.075 44.059C23.758 43.706 23.64 43.209 23.724 42.581Z" fill="black"/>
<path d="M36.741 39.019C38.5514 39.019 40.019 37.5514 40.019 35.741C40.019 33.9306 38.5514 32.463 36.741 32.463C34.9306 32.463 33.463 33.9306 33.463 35.741C33.463 37.5514 34.9306 39.019 36.741 39.019Z" fill="black"/>
</g>
<circle cx="201" cy="37" r="5" fill="black"/>
<defs>
<clipPath id="clip0">
<rect width="31.483" height="31.482" fill="white" transform="translate(21 20)"/>
</clipPath>
</defs>
</svg>
