<svg width="120" height="120" viewBox="0 0 120 120" fill="none" xmlns="http://www.w3.org/2000/svg">
<circle cx="60" cy="60" r="60" fill="#FFD0B6"/>
<g clip-path="url(#clip0)">
<path d="M59.4999 22C49.8017 22 41.9507 29.851 41.9507 39.5493C41.9507 49.2475 49.8017 57.0985 59.4999 57.0985C69.1982 57.0985 77.0492 49.2475 77.0492 39.5493C77.0492 29.851 69.1982 22 59.4999 22Z" fill="#FE9154"/>
<path d="M66.3349 59.1306H52.665C38.9027 59.1306 27.7266 70.3067 27.7266 84.069V94.2291C27.7266 95.7993 28.9273 97.0001 30.4975 97.0001H88.5024C90.0726 97.0001 91.2734 95.7993 91.2734 94.2291V84.069C91.2734 70.3067 80.0973 59.1306 66.3349 59.1306Z" fill="#FE9154"/>
</g>
<defs>
<clipPath id="clip0">
<rect width="75" height="75" fill="white" transform="translate(22 22)"/>
</clipPath>
</defs>
</svg>
