<svg width="75" height="75" viewBox="0 0 75 75" fill="none" xmlns="http://www.w3.org/2000/svg">
<g clip-path="url(#clip0)">
<path d="M37.4955 0.370361C16.7473 0.410277 -0.040187 17.2621 -0.000417768 38.0104C0.0331879 55.558 12.21 70.7448 29.3306 74.5921C30.1747 74.7788 31.0103 74.246 31.1971 73.4019C31.2216 73.2911 31.2341 73.1779 31.2341 73.0643V64.5489C31.2341 63.6844 30.5332 62.9835 29.6687 62.9835H26.5381C22.631 62.9835 19.9637 59.28 17.6251 56.0116L16.905 55.016C17.9582 55.6043 18.9649 56.272 19.9168 57.0134C21.6781 58.6536 23.9443 59.6471 26.344 59.831C28.7038 60.1594 30.8831 58.5128 31.2115 56.1529C31.2574 55.8228 31.2649 55.4887 31.234 55.1569V54.0643C31.2341 53.3649 30.7702 52.7502 30.0975 52.5585C21.413 50.1009 15.5806 43.5955 15.5806 36.3731C15.6453 32.4653 17.2483 28.7408 20.0418 26.0074C20.4928 25.5426 20.6109 24.8482 20.3393 24.2605C19.2003 21.6812 19.3716 18.7116 20.7995 16.2804C22.9969 17.1654 24.9606 18.5453 26.538 20.3126C26.9625 20.8164 27.6572 21.0004 28.2755 20.7728C34.2373 18.6232 40.7627 18.6232 46.7244 20.7728C47.34 20.996 48.0295 20.8123 48.4526 20.3126C50.0287 18.5444 51.9913 17.1635 54.188 16.2772C55.6159 18.7084 55.7871 21.678 54.6482 24.2573C54.3764 24.845 54.4947 25.5394 54.9457 26.0042C57.7411 28.7377 59.3454 32.4637 59.4099 36.3729C59.4099 43.9553 52.9325 50.7457 43.6533 52.884C42.8108 53.0777 42.2847 53.9177 42.4784 54.7602C42.5089 54.8929 42.5564 55.0209 42.6201 55.1412C43.4971 57.112 43.8869 59.265 43.7566 61.4181V73.0642C43.7566 73.9287 44.4574 74.6296 45.3219 74.6296C45.4357 74.6291 45.549 74.6165 45.6601 74.592C65.9035 70.0429 78.6262 49.9446 74.0771 29.7014C70.2299 12.5808 55.0431 0.404114 37.4955 0.370361Z" fill="white"/>
</g>
<defs>
<clipPath id="clip0">
<rect width="75" height="75" fill="white"/>
</clipPath>
</defs>
</svg>
